<svg xmlns="http://www.w3.org/2000/svg" viewBox="0 0 1130 868" role="img"><title>Nuremberg Highway: original game terrain</title><defs><clipPath id="map"><rect x="44" y="44" width="780" height="780"/></clipPath></defs><rect width="1130" height="868" fill="#f7f2e7"/><g clip-path="url(#map)"><rect x="44" y="44" width="780" height="780" fill="#e1e4cf"/><polygon fill="#b6ad7f" points="152.225,325.775 138.575,325.775 138.575,339.425"/><polygon fill="#b6ad7f" points="138.575,339.425 152.225,339.425 152.225,325.775"/><polygon fill="#b6ad7f" points="698.225,590.975 684.575,590.975 684.575,604.625"/><polygon fill="#b6ad7f" points="684.575,604.625 698.225,604.625 698.225,590.975"/><polygon fill="#b6ad7f" points="608.525,358.925 605.600,356.000 621.200,356.000"/><polygon fill="#b6ad7f" points="605.600,371.600 605.600,356.000 608.525,358.925"/><polygon fill="#b6ad7f" points="605.600,371.600 621.200,371.600 618.275,368.675"/><polygon fill="#b6ad7f" points="621.200,356.000 621.200,371.600 618.275,368.675"/><polygon fill="#b6ad7f" points="483.725,374.525 480.800,371.600 496.400,371.600"/><polygon fill="#b6ad7f" points="480.800,387.200 480.800,371.600 483.725,374.525"/><polygon fill="#b6ad7f" points="480.800,387.200 496.400,387.200 493.475,384.275"/><polygon fill="#b6ad7f" points="496.400,371.600 496.400,387.200 493.475,384.275"/><polygon fill="#b6ad7f" points="514.925,374.525 512.000,371.600 527.600,371.600"/><polygon fill="#b6ad7f" points="512.000,387.200 512.000,371.600 514.925,374.525"/><polygon fill="#b6ad7f" points="512.000,387.200 527.600,387.200 524.675,384.275"/><polygon fill="#b6ad7f" points="527.600,371.600 527.600,387.200 524.675,384.275"/><polygon fill="#b6ad7f" points="561.725,374.525 558.800,371.600 574.400,371.600"/><polygon fill="#b6ad7f" points="558.800,387.200 558.800,371.600 561.725,374.525"/><polygon fill="#b6ad7f" points="558.800,387.200 574.400,387.200 571.475,384.275"/><polygon fill="#b6ad7f" points="574.400,371.600 574.400,387.200 571.475,384.275"/><polygon fill="#b6ad7f" points="608.525,374.525 605.600,371.600 621.200,371.600"/><polygon fill="#b6ad7f" points="605.600,387.200 605.600,371.600 608.525,374.525"/><polygon fill="#b6ad7f" points="605.600,387.200 621.200,387.200 618.275,384.275"/><polygon fill="#b6ad7f" points="621.200,371.600 621.200,387.200 618.275,384.275"/><polygon fill="#b6ad7f" points="639.725,374.525 636.800,371.600 652.400,371.600"/><polygon fill="#b6ad7f" points="636.800,387.200 636.800,371.600 639.725,374.525"/><polygon fill="#b6ad7f" points="636.800,387.200 652.400,387.200 649.475,384.275"/><polygon fill="#b6ad7f" points="652.400,371.600 652.400,387.200 649.475,384.275"/><polygon fill="#b6ad7f" points="514.925,405.725 512.000,402.800 527.600,402.800"/><polygon fill="#b6ad7f" points="512.000,418.400 512.000,402.800 514.925,405.725"/><polygon fill="#b6ad7f" points="512.000,418.400 527.600,418.400 524.675,415.475"/><polygon fill="#b6ad7f" points="527.600,402.800 527.600,418.400 524.675,415.475"/><polygon fill="#b6ad7f" points="558.800,410.600 566.600,402.800 566.600,410.600"/><polygon fill="#b6ad7f" points="558.800,410.600 566.600,410.600 566.600,418.400"/><polygon fill="#b6ad7f" points="566.600,418.400 566.600,410.600 574.400,410.600"/><polygon fill="#b6ad7f" points="574.400,410.600 566.600,410.600 566.600,402.800"/><polygon fill="#b6ad7f" points="592.925,405.725 590.000,402.800 605.600,402.800"/><polygon fill="#b6ad7f" points="590.000,418.400 590.000,402.800 592.925,405.725"/><polygon fill="#b6ad7f" points="590.000,418.400 605.600,418.400 602.675,415.475"/><polygon fill="#b6ad7f" points="605.600,402.800 605.600,418.400 602.675,415.475"/><polygon fill="#b6ad7f" points="608.525,405.725 605.600,402.800 621.200,402.800"/><polygon fill="#b6ad7f" points="605.600,418.400 605.600,402.800 608.525,405.725"/><polygon fill="#b6ad7f" points="605.600,418.400 621.200,418.400 618.275,415.475"/><polygon fill="#b6ad7f" points="621.200,402.800 621.200,418.400 618.275,415.475"/><polygon fill="#b6ad7f" points="636.800,410.600 644.600,402.800 644.600,410.600"/><polygon fill="#b6ad7f" points="636.800,410.600 644.600,410.600 644.600,418.400"/><polygon fill="#b6ad7f" points="644.600,418.400 644.600,410.600 652.400,410.600"/><polygon fill="#b6ad7f" points="652.400,410.600 644.600,410.600 644.600,402.800"/><polygon fill="#b6ad7f" points="652.400,410.600 660.200,402.800 660.200,410.600"/><polygon fill="#b6ad7f" points="652.400,410.600 660.200,410.600 660.200,418.400"/><polygon fill="#b6ad7f" points="660.200,418.400 660.200,410.600 668.000,410.600"/><polygon fill="#b6ad7f" points="668.000,410.600 660.200,410.600 660.200,402.800"/><polygon fill="#b6ad7f" points="668.000,410.600 675.800,402.800 675.800,410.600"/><polygon fill="#b6ad7f" points="668.000,410.600 675.800,410.600 675.800,418.400"/><polygon fill="#b6ad7f" points="675.800,418.400 675.800,410.600 683.600,410.600"/><polygon fill="#b6ad7f" points="683.600,410.600 675.800,410.600 675.800,402.800"/><polygon fill="#b6ad7f" points="574.400,426.200 582.200,418.400 582.200,426.200"/><polygon fill="#b6ad7f" points="574.400,426.200 582.200,426.200 582.200,434.000"/><polygon fill="#b6ad7f" points="582.200,434.000 582.200,426.200 590.000,426.200"/><polygon fill="#b6ad7f" points="590.000,426.200 582.200,426.200 582.200,418.400"/><polygon fill="#b6ad7f" points="496.400,441.800 504.200,434.000 504.200,441.800"/><polygon fill="#b6ad7f" points="496.400,441.800 504.200,441.800 504.200,449.600"/><polygon fill="#b6ad7f" points="504.200,449.600 504.200,441.800 512.000,441.800"/><polygon fill="#b6ad7f" points="512.000,441.800 504.200,441.800 504.200,434.000"/><polygon fill="#b6ad7f" points="652.400,441.800 660.200,434.000 660.200,441.800"/><polygon fill="#b6ad7f" points="652.400,441.800 660.200,441.800 660.200,449.600"/><polygon fill="#b6ad7f" points="660.200,449.600 660.200,441.800 668.000,441.800"/><polygon fill="#b6ad7f" points="668.000,441.800 660.200,441.800 660.200,434.000"/><polygon fill="#b6ad7f" points="496.400,457.400 504.200,449.600 504.200,457.400"/><polygon fill="#b6ad7f" points="496.400,457.400 504.200,457.400 504.200,465.200"/><polygon fill="#b6ad7f" points="504.200,465.200 504.200,457.400 512.000,457.400"/><polygon fill="#b6ad7f" points="512.000,457.400 504.200,457.400 504.200,449.600"/><polygon fill="#b6ad7f" points="652.400,473.000 660.200,465.200 660.200,473.000"/><polygon fill="#b6ad7f" points="652.400,473.000 660.200,473.000 660.200,480.800"/><polygon fill="#b6ad7f" points="660.200,480.800 660.200,473.000 668.000,473.000"/><polygon fill="#b6ad7f" points="668.000,473.000 660.200,473.000 660.200,465.200"/><polygon fill="#b6ad7f" points="686.525,468.125 683.600,465.200 699.200,465.200"/><polygon fill="#b6ad7f" points="683.600,480.800 683.600,465.200 686.525,468.125"/><polygon fill="#b6ad7f" points="683.600,480.800 699.200,480.800 696.275,477.875"/><polygon fill="#b6ad7f" points="699.200,465.200 699.200,480.800 696.275,477.875"/><polygon fill="#b6ad7f" points="639.725,499.325 636.800,496.400 652.400,496.400"/><polygon fill="#b6ad7f" points="636.800,512.000 636.800,496.400 639.725,499.325"/><polygon fill="#b6ad7f" points="636.800,512.000 652.400,512.000 649.475,509.075"/><polygon fill="#b6ad7f" points="652.400,496.400 652.400,512.000 649.475,509.075"/><polygon fill="#b6ad7f" points="686.525,499.325 683.600,496.400 699.200,496.400"/><polygon fill="#b6ad7f" points="683.600,512.000 683.600,496.400 686.525,499.325"/><polygon fill="#b6ad7f" points="683.600,512.000 699.200,512.000 696.275,509.075"/><polygon fill="#b6ad7f" points="699.200,496.400 699.200,512.000 696.275,509.075"/><polygon fill="#b6ad7f" points="683.600,519.800 691.400,512.000 691.400,519.800"/><polygon fill="#b6ad7f" points="683.600,519.800 691.400,519.800 691.400,527.600"/><polygon fill="#b6ad7f" points="691.400,527.600 691.400,519.800 699.200,519.800"/><polygon fill="#b6ad7f" points="699.200,519.800 691.400,519.800 691.400,512.000"/><polygon fill="#b6ad7f" points="683.600,535.400 691.400,527.600 691.400,535.400"/><polygon fill="#b6ad7f" points="683.600,535.400 691.400,535.400 691.400,543.200"/><polygon fill="#b6ad7f" points="691.400,543.200 691.400,535.400 699.200,535.400"/><polygon fill="#b6ad7f" points="699.200,535.400 691.400,535.400 691.400,527.600"/><polygon fill="#b6ad7f" points="621.200,356.000 618.275,358.925 608.525,358.925"/><polygon fill="#b6ad7f" points="608.525,358.925 608.525,368.675 605.600,371.600"/><polygon fill="#b6ad7f" points="618.275,368.675 608.525,368.675 605.600,371.600"/><polygon fill="#b6ad7f" points="618.275,368.675 618.275,358.925 621.200,356.000"/><polygon fill="#b6ad7f" points="496.400,371.600 493.475,374.525 483.725,374.525"/><polygon fill="#b6ad7f" points="483.725,374.525 483.725,384.275 480.800,387.200"/><polygon fill="#b6ad7f" points="493.475,384.275 483.725,384.275 480.800,387.200"/><polygon fill="#b6ad7f" points="493.475,384.275 493.475,374.525 496.400,371.600"/><polygon fill="#b6ad7f" points="527.600,371.600 524.675,374.525 514.925,374.525"/><polygon fill="#b6ad7f" points="514.925,374.525 514.925,384.275 512.000,387.200"/><polygon fill="#b6ad7f" points="524.675,384.275 514.925,384.275 512.000,387.200"/><polygon fill="#b6ad7f" points="524.675,384.275 524.675,374.525 527.600,371.600"/><polygon fill="#b6ad7f" points="574.400,371.600 571.475,374.525 561.725,374.525"/><polygon fill="#b6ad7f" points="561.725,374.525 561.725,384.275 558.800,387.200"/><polygon fill="#b6ad7f" points="571.475,384.275 561.725,384.275 558.800,387.200"/><polygon fill="#b6ad7f" points="571.475,384.275 571.475,374.525 574.400,371.600"/><polygon fill="#b6ad7f" points="621.200,371.600 618.275,374.525 608.525,374.525"/><polygon fill="#b6ad7f" points="608.525,374.525 608.525,384.275 605.600,387.200"/><polygon fill="#b6ad7f" points="618.275,384.275 608.525,384.275 605.600,387.200"/><polygon fill="#b6ad7f" points="618.275,384.275 618.275,374.525 621.200,371.600"/><polygon fill="#b6ad7f" points="652.400,371.600 649.475,374.525 639.725,374.525"/><polygon fill="#b6ad7f" points="639.725,374.525 639.725,384.275 636.800,387.200"/><polygon fill="#b6ad7f" points="649.475,384.275 639.725,384.275 636.800,387.200"/><polygon fill="#b6ad7f" points="649.475,384.275 649.475,374.525 652.400,371.600"/><polygon fill="#b6ad7f" points="527.600,402.800 524.675,405.725 514.925,405.725"/><polygon fill="#b6ad7f" points="514.925,405.725 514.925,415.475 512.000,418.400"/><polygon fill="#b6ad7f" points="524.675,415.475 514.925,415.475 512.000,418.400"/><polygon fill="#b6ad7f" points="524.675,415.475 524.675,405.725 527.600,402.800"/><polygon fill="#b6ad7f" points="605.600,402.800 602.675,405.725 592.925,405.725"/><polygon fill="#b6ad7f" points="592.925,405.725 592.925,415.475 590.000,418.400"/><polygon fill="#b6ad7f" points="602.675,415.475 592.925,415.475 590.000,418.400"/><polygon fill="#b6ad7f" points="602.675,415.475 602.675,405.725 605.600,402.800"/><polygon fill="#b6ad7f" points="621.200,402.800 618.275,405.725 608.525,405.725"/><polygon fill="#b6ad7f" points="608.525,405.725 608.525,415.475 605.600,418.400"/><polygon fill="#b6ad7f" points="618.275,415.475 608.525,415.475 605.600,418.400"/><polygon fill="#b6ad7f" points="618.275,415.475 618.275,405.725 621.200,402.800"/><polygon fill="#b6ad7f" points="699.200,465.200 696.275,468.125 686.525,468.125"/><polygon fill="#b6ad7f" points="686.525,468.125 686.525,477.875 683.600,480.800"/><polygon fill="#b6ad7f" points="696.275,477.875 686.525,477.875 683.600,480.800"/><polygon fill="#b6ad7f" points="696.275,477.875 696.275,468.125 699.200,465.200"/><polygon fill="#b6ad7f" points="652.400,496.400 649.475,499.325 639.725,499.325"/><polygon fill="#b6ad7f" points="639.725,499.325 639.725,509.075 636.800,512.000"/><polygon fill="#b6ad7f" points="649.475,509.075 639.725,509.075 636.800,512.000"/><polygon fill="#b6ad7f" points="649.475,509.075 649.475,499.325 652.400,496.400"/><polygon fill="#b6ad7f" points="699.200,496.400 696.275,499.325 686.525,499.325"/><polygon fill="#b6ad7f" points="686.525,499.325 686.525,509.075 683.600,512.000"/><polygon fill="#b6ad7f" points="696.275,509.075 686.525,509.075 683.600,512.000"/><polygon fill="#b6ad7f" points="696.275,509.075 696.275,499.325 699.200,496.400"/><polygon fill="#b6ad7f" points="608.525,358.925 618.275,358.925 618.275,368.675"/><polygon fill="#b6ad7f" points="618.275,368.675 608.525,368.675 608.525,358.925"/><polygon fill="#b6ad7f" points="483.725,374.525 493.475,374.525 493.475,384.275"/><polygon fill="#b6ad7f" points="493.475,384.275 483.725,384.275 483.725,374.525"/><polygon fill="#b6ad7f" points="514.925,374.525 524.675,374.525 524.675,384.275"/><polygon fill="#b6ad7f" points="524.675,384.275 514.925,384.275 514.925,374.525"/><polygon fill="#b6ad7f" points="561.725,374.525 571.475,374.525 571.475,384.275"/><polygon fill="#b6ad7f" points="571.475,384.275 561.725,384.275 561.725,374.525"/><polygon fill="#b6ad7f" points="608.525,374.525 618.275,374.525 618.275,384.275"/><polygon fill="#b6ad7f" points="618.275,384.275 608.525,384.275 608.525,374.525"/><polygon fill="#b6ad7f" points="639.725,374.525 649.475,374.525 649.475,384.275"/><polygon fill="#b6ad7f" points="649.475,384.275 639.725,384.275 639.725,374.525"/><polygon fill="#b6ad7f" points="514.925,405.725 524.675,405.725 524.675,415.475"/><polygon fill="#b6ad7f" points="524.675,415.475 514.925,415.475 514.925,405.725"/><polygon fill="#b6ad7f" points="592.925,405.725 602.675,405.725 602.675,415.475"/><polygon fill="#b6ad7f" points="602.675,415.475 592.925,415.475 592.925,405.725"/><polygon fill="#b6ad7f" points="608.525,405.725 618.275,405.725 618.275,415.475"/><polygon fill="#b6ad7f" points="618.275,415.475 608.525,415.475 608.525,405.725"/><polygon fill="#b6ad7f" points="686.525,468.125 696.275,468.125 696.275,477.875"/><polygon fill="#b6ad7f" points="696.275,477.875 686.525,477.875 686.525,468.125"/><polygon fill="#b6ad7f" points="639.725,499.325 649.475,499.325 649.475,509.075"/><polygon fill="#b6ad7f" points="649.475,509.075 639.725,509.075 639.725,499.325"/><polygon fill="#b6ad7f" points="686.525,499.325 696.275,499.325 696.275,509.075"/><polygon fill="#b6ad7f" points="696.275,509.075 686.525,509.075 686.525,499.325"/><polygon fill="#b6ad7f" points="231.200,153.200 246.800,153.200 246.800,137.600"/><polygon fill="#b6ad7f" points="262.400,137.600 246.800,137.600 246.800,153.200"/><polygon fill="#b6ad7f" points="262.400,137.600 278.000,153.200 262.400,153.200"/><polygon fill="#b6ad7f" points="246.800,153.200 231.200,153.200 231.200,168.800"/><polygon fill="#b6ad7f" points="262.400,168.800 278.000,168.800 278.000,153.200"/><polygon fill="#b6ad7f" points="231.200,168.800 246.800,184.400 246.800,168.800"/><polygon fill="#b6ad7f" points="246.800,184.400 262.400,184.400 262.400,168.800"/><polygon fill="#b6ad7f" points="262.400,168.800 262.400,184.400 278.000,168.800"/><polygon fill="#b6ad7f" points="90.800,278.000 106.400,278.000 106.400,262.400"/><polygon fill="#b6ad7f" points="122.000,262.400 106.400,262.400 106.400,278.000"/><polygon fill="#b6ad7f" points="122.000,262.400 137.600,278.000 122.000,278.000"/><polygon fill="#b6ad7f" points="215.600,278.000 231.200,278.000 231.200,262.400"/><polygon fill="#b6ad7f" points="246.800,262.400 231.200,262.400 231.200,278.000"/><polygon fill="#b6ad7f" points="246.800,262.400 246.800,278.000 262.400,278.000"/><polygon fill="#b6ad7f" points="106.400,278.000 90.800,278.000 90.800,293.600"/><polygon fill="#b6ad7f" points="122.000,293.600 137.600,293.600 137.600,278.000"/><polygon fill="#b6ad7f" points="231.200,278.000 215.600,278.000 215.600,293.600"/><polygon fill="#b6ad7f" points="246.800,293.600 262.400,293.600 262.400,278.000"/><polygon fill="#b6ad7f" points="90.800,293.600 106.400,309.200 106.400,293.600"/><polygon fill="#b6ad7f" points="106.400,309.200 122.000,309.200 122.000,293.600"/><polygon fill="#b6ad7f" points="122.000,293.600 122.000,309.200 137.600,293.600"/><polygon fill="#b6ad7f" points="231.200,293.600 215.600,293.600 215.600,309.200"/><polygon fill="#b6ad7f" points="246.800,309.200 262.400,309.200 262.400,293.600"/><polygon fill="#b6ad7f" points="231.200,309.200 215.600,309.200 215.600,324.800"/><polygon fill="#b6ad7f" points="246.800,324.800 262.400,324.800 262.400,309.200"/><polygon fill="#b6ad7f" points="231.200,324.800 215.600,324.800 215.600,340.400"/><polygon fill="#b6ad7f" points="246.800,340.400 262.400,340.400 262.400,324.800"/><polygon fill="#b6ad7f" points="231.200,340.400 215.600,340.400 215.600,356.000"/><polygon fill="#b6ad7f" points="246.800,356.000 262.400,356.000 262.400,340.400"/><polygon fill="#b6ad7f" points="231.200,356.000 215.600,356.000 215.600,371.600"/><polygon fill="#b6ad7f" points="246.800,371.600 262.400,371.600 262.400,356.000"/><polygon fill="#b6ad7f" points="215.600,371.600 231.200,387.200 231.200,371.600"/><polygon fill="#b6ad7f" points="231.200,387.200 246.800,387.200 246.800,371.600"/><polygon fill="#b6ad7f" points="246.800,371.600 246.800,387.200 262.400,371.600"/><polygon fill="#b6ad7f" points="215.600,434.000 231.200,434.000 231.200,418.400"/><polygon fill="#b6ad7f" points="246.800,418.400 231.200,418.400 231.200,434.000"/><polygon fill="#b6ad7f" points="246.800,418.400 246.800,434.000 262.400,434.000"/><polygon fill="#b6ad7f" points="231.200,434.000 215.600,434.000 215.600,449.600"/><polygon fill="#b6ad7f" points="246.800,449.600 262.400,449.600 262.400,434.000"/><polygon fill="#b6ad7f" points="215.600,449.600 231.200,465.200 231.200,449.600"/><polygon fill="#b6ad7f" points="231.200,465.200 246.800,465.200 246.800,449.600"/><polygon fill="#b6ad7f" points="246.800,449.600 246.800,465.200 262.400,449.600"/><polygon fill="#b6ad7f" points="496.400,527.600 512.000,527.600 512.000,512.000"/><polygon fill="#b6ad7f" points="527.600,512.000 512.000,512.000 512.000,527.600"/><polygon fill="#b6ad7f" points="527.600,512.000 543.200,527.600 527.600,527.600"/><polygon fill="#b6ad7f" points="512.000,527.600 496.400,527.600 496.400,543.200"/><polygon fill="#b6ad7f" points="527.600,543.200 543.200,543.200 543.200,527.600"/><polygon fill="#b6ad7f" points="496.400,543.200 512.000,558.800 512.000,543.200"/><polygon fill="#b6ad7f" points="512.000,558.800 527.600,558.800 527.600,543.200"/><polygon fill="#b6ad7f" points="527.600,543.200 527.600,558.800 543.200,543.200"/><polygon fill="#b6ad7f" points="75.200,574.400 90.800,574.400 90.800,558.800"/><polygon fill="#b6ad7f" points="90.800,558.800 90.800,574.400 106.400,574.400"/><polygon fill="#b6ad7f" points="90.800,574.400 75.200,574.400 75.200,590.000"/><polygon fill="#b6ad7f" points="90.800,590.000 106.400,590.000 106.400,574.400"/><polygon fill="#b6ad7f" points="90.800,590.000 75.200,590.000 75.200,605.600"/><polygon fill="#b6ad7f" points="90.800,605.600 106.400,605.600 106.400,590.000"/><polygon fill="#b6ad7f" points="90.800,605.600 75.200,605.600 75.200,621.200"/><polygon fill="#b6ad7f" points="90.800,621.200 106.400,621.200 106.400,605.600"/><polygon fill="#b6ad7f" points="90.800,621.200 75.200,621.200 75.200,636.800"/><polygon fill="#b6ad7f" points="90.800,636.800 106.400,636.800 106.400,621.200"/><polygon fill="#b6ad7f" points="90.800,636.800 75.200,636.800 75.200,652.400"/><polygon fill="#b6ad7f" points="90.800,652.400 106.400,652.400 106.400,636.800"/><polygon fill="#b6ad7f" points="90.800,652.400 75.200,652.400 75.200,668.000"/><polygon fill="#b6ad7f" points="90.800,668.000 106.400,668.000 106.400,652.400"/><polygon fill="#b6ad7f" points="90.800,668.000 75.200,668.000 75.200,683.600"/><polygon fill="#b6ad7f" points="90.800,683.600 106.400,683.600 106.400,668.000"/><polygon fill="#b6ad7f" points="90.800,683.600 75.200,683.600 75.200,699.200"/><polygon fill="#b6ad7f" points="90.800,699.200 106.400,699.200 106.400,683.600"/><polygon fill="#b6ad7f" points="90.800,699.200 75.200,699.200 75.200,714.800"/><polygon fill="#b6ad7f" points="90.800,714.800 106.400,714.800 106.400,699.200"/><polygon fill="#b6ad7f" points="90.800,714.800 75.200,714.800 75.200,730.400"/><polygon fill="#b6ad7f" points="90.800,730.400 106.400,730.400 106.400,714.800"/><polygon fill="#b6ad7f" points="90.800,730.400 75.200,730.400 75.200,746.000"/><polygon fill="#b6ad7f" points="90.800,746.000 106.400,746.000 106.400,730.400"/><polygon fill="#b6ad7f" points="90.800,746.000 75.200,746.000 75.200,761.600"/><polygon fill="#b6ad7f" points="90.800,761.600 106.400,761.600 106.400,746.000"/><polygon fill="#b6ad7f" points="231.200,278.000 246.800,278.000 246.800,262.400"/><polygon fill="#b6ad7f" points="215.600,293.600 231.200,293.600 231.200,278.000"/><polygon fill="#b6ad7f" points="262.400,278.000 246.800,278.000 246.800,293.600"/><polygon fill="#b6ad7f" points="215.600,309.200 231.200,309.200 231.200,293.600"/><polygon fill="#b6ad7f" points="262.400,293.600 246.800,293.600 246.800,309.200"/><polygon fill="#b6ad7f" points="215.600,324.800 231.200,324.800 231.200,309.200"/><polygon fill="#b6ad7f" points="262.400,309.200 246.800,309.200 246.800,324.800"/><polygon fill="#b6ad7f" points="215.600,340.400 231.200,340.400 231.200,324.800"/><polygon fill="#b6ad7f" points="262.400,324.800 246.800,324.800 246.800,340.400"/><polygon fill="#b6ad7f" points="215.600,356.000 231.200,356.000 231.200,340.400"/><polygon fill="#b6ad7f" points="262.400,340.400 246.800,340.400 246.800,356.000"/><polygon fill="#b6ad7f" points="215.600,371.600 231.200,371.600 231.200,356.000"/><polygon fill="#b6ad7f" points="262.400,356.000 246.800,356.000 246.800,371.600"/><polygon fill="#b6ad7f" points="246.800,371.600 231.200,371.600 231.200,387.200"/><polygon fill="#b6ad7f" points="231.200,434.000 246.800,434.000 246.800,418.400"/><polygon fill="#b6ad7f" points="215.600,449.600 231.200,449.600 231.200,434.000"/><polygon fill="#b6ad7f" points="262.400,434.000 246.800,434.000 246.800,449.600"/><polygon fill="#b6ad7f" points="246.800,449.600 231.200,449.600 231.200,465.200"/><polygon fill="#b6ad7f" points="75.200,590.000 90.800,590.000 90.800,574.400"/><polygon fill="#b6ad7f" points="106.400,574.400 90.800,574.400 90.800,590.000"/><polygon fill="#b6ad7f" points="75.200,605.600 90.800,605.600 90.800,590.000"/><polygon fill="#b6ad7f" points="106.400,590.000 90.800,590.000 90.800,605.600"/><polygon fill="#b6ad7f" points="75.200,621.200 90.800,621.200 90.800,605.600"/><polygon fill="#b6ad7f" points="106.400,605.600 90.800,605.600 90.800,621.200"/><polygon fill="#b6ad7f" points="75.200,636.800 90.800,636.800 90.800,621.200"/><polygon fill="#b6ad7f" points="106.400,621.200 90.800,621.200 90.800,636.800"/><polygon fill="#b6ad7f" points="75.200,652.400 90.800,652.400 90.800,636.800"/><polygon fill="#b6ad7f" points="106.400,636.800 90.800,636.800 90.800,652.400"/><polygon fill="#b6ad7f" points="75.200,668.000 90.800,668.000 90.800,652.400"/><polygon fill="#b6ad7f" points="106.400,652.400 90.800,652.400 90.800,668.000"/><polygon fill="#b6ad7f" points="75.200,683.600 90.800,683.600 90.800,668.000"/><polygon fill="#b6ad7f" points="106.400,668.000 90.800,668.000 90.800,683.600"/><polygon fill="#b6ad7f" points="75.200,699.200 90.800,699.200 90.800,683.600"/><polygon fill="#b6ad7f" points="106.400,683.600 90.800,683.600 90.800,699.200"/><polygon fill="#b6ad7f" points="75.200,714.800 90.800,714.800 90.800,699.200"/><polygon fill="#b6ad7f" points="106.400,699.200 90.800,699.200 90.800,714.800"/><polygon fill="#b6ad7f" points="75.200,730.400 90.800,730.400 90.800,714.800"/><polygon fill="#b6ad7f" points="106.400,714.800 90.800,714.800 90.800,730.400"/><polygon fill="#b6ad7f" points="75.200,746.000 90.800,746.000 90.800,730.400"/><polygon fill="#b6ad7f" points="106.400,730.400 90.800,730.400 90.800,746.000"/><polygon fill="#b6ad7f" points="75.200,761.600 90.800,761.600 90.800,746.000"/><polygon fill="#b6ad7f" points="106.400,746.000 90.800,746.000 90.800,761.600"/><polygon fill="#b6ad7f" points="246.800,293.600 246.800,278.000 231.200,278.000"/><polygon fill="#b6ad7f" points="231.200,278.000 231.200,293.600 246.800,293.600"/><polygon fill="#b6ad7f" points="246.800,309.200 246.800,293.600 231.200,293.600"/><polygon fill="#b6ad7f" points="231.200,293.600 231.200,309.200 246.800,309.200"/><polygon fill="#b6ad7f" points="246.800,324.800 246.800,309.200 231.200,309.200"/><polygon fill="#b6ad7f" points="231.200,309.200 231.200,324.800 246.800,324.800"/><polygon fill="#b6ad7f" points="246.800,340.400 246.800,324.800 231.200,324.800"/><polygon fill="#b6ad7f" points="231.200,324.800 231.200,340.400 246.800,340.400"/><polygon fill="#b6ad7f" points="246.800,356.000 246.800,340.400 231.200,340.400"/><polygon fill="#b6ad7f" points="231.200,340.400 231.200,356.000 246.800,356.000"/><polygon fill="#b6ad7f" points="246.800,371.600 246.800,356.000 231.200,356.000"/><polygon fill="#b6ad7f" points="231.200,356.000 231.200,371.600 246.800,371.600"/><polygon fill="#b6ad7f" points="246.800,449.600 246.800,434.000 231.200,434.000"/><polygon fill="#b6ad7f" points="231.200,434.000 231.200,449.600 246.800,449.600"/><polygon fill="#b6ad7f" points="278.000,558.800 278.000,543.200 262.400,543.200"/><polygon fill="#b6ad7f" points="262.400,543.200 262.400,558.800 278.000,558.800"/><polygon fill="#b6ad7f" points="246.800,153.200 262.400,153.200 262.400,137.600"/><polygon fill="#b6ad7f" points="231.200,168.800 246.800,168.800 246.800,153.200"/><polygon fill="#b6ad7f" points="278.000,153.200 262.400,153.200 262.400,168.800"/><polygon fill="#b6ad7f" points="262.400,168.800 246.800,168.800 246.800,184.400"/><polygon fill="#b6ad7f" points="106.400,278.000 122.000,278.000 122.000,262.400"/><polygon fill="#b6ad7f" points="90.800,293.600 106.400,293.600 106.400,278.000"/><polygon fill="#b6ad7f" points="137.600,278.000 122.000,278.000 122.000,293.600"/><polygon fill="#b6ad7f" points="122.000,293.600 106.400,293.600 106.400,309.200"/><polygon fill="#b6ad7f" points="512.000,527.600 527.600,527.600 527.600,512.000"/><polygon fill="#b6ad7f" points="496.400,543.200 512.000,543.200 512.000,527.600"/><polygon fill="#b6ad7f" points="543.200,527.600 527.600,527.600 527.600,543.200"/><polygon fill="#b6ad7f" points="527.600,543.200 512.000,543.200 512.000,558.800"/><polygon fill="#b6ad7f" points="262.400,153.200 246.800,153.200 246.800,168.800"/><polygon fill="#b6ad7f" points="246.800,168.800 262.400,168.800 262.400,153.200"/><polygon fill="#b6ad7f" points="122.000,278.000 106.400,278.000 106.400,293.600"/><polygon fill="#b6ad7f" points="106.400,293.600 122.000,293.600 122.000,278.000"/><polygon fill="#b6ad7f" points="527.600,527.600 512.000,527.600 512.000,543.200"/><polygon fill="#b6ad7f" points="512.000,543.200 527.600,543.200 527.600,527.600"/><polygon fill="#8b9860" points="122.000,215.600 137.600,215.600 137.600,200.000"/><polygon fill="#8b9860" points="137.600,200.000 137.600,215.600 153.200,215.600"/><polygon fill="#8b9860" points="122.000,215.600 137.600,231.200 137.600,215.600"/><polygon fill="#8b9860" points="153.200,215.600 137.600,215.600 137.600,231.200"/><polygon fill="#8b9860" points="621.200,246.800 636.800,246.800 636.800,231.200"/><polygon fill="#8b9860" points="636.800,231.200 636.800,246.800 652.400,246.800"/><polygon fill="#8b9860" points="402.800,262.400 418.400,262.400 418.400,246.800"/><polygon fill="#8b9860" points="465.200,246.800 465.200,262.400 480.800,262.400"/><polygon fill="#8b9860" points="636.800,246.800 621.211,246.800 621.200,262.400"/><polygon fill="#8b9860" points="636.800,262.400 652.400,262.400 652.400,246.800"/><polygon fill="#8b9860" points="402.800,262.400 418.400,278.000 418.400,262.400"/><polygon fill="#8b9860" points="418.400,278.000 434.000,278.000 434.000,262.400"/><polygon fill="#8b9860" points="434.000,278.000 449.600,278.000 449.600,262.400"/><polygon fill="#8b9860" points="449.600,278.000 465.200,278.000 465.200,262.400"/><polygon fill="#8b9860" points="480.800,262.400 465.200,262.400 465.200,278.000"/><polygon fill="#8b9860" points="621.200,262.400 636.800,278.000 636.800,262.400"/><polygon fill="#8b9860" points="652.400,262.400 636.800,262.400 636.800,278.000"/><polygon fill="#8b9860" points="200.000,324.800 184.411,324.800 184.400,340.400"/><polygon fill="#8b9860" points="200.000,340.400 184.411,340.400 184.400,356.000"/><polygon fill="#8b9860" points="340.400,356.000 356.000,356.000 356.000,340.400"/><polygon fill="#8b9860" points="371.600,340.400 356.000,340.400 356.000,356.000"/><polygon fill="#8b9860" points="371.600,340.400 371.600,356.000 387.200,356.000"/><polygon fill="#8b9860" points="574.400,356.000 590.000,356.000 590.000,340.400"/><polygon fill="#8b9860" points="590.000,340.400 590.000,356.000 605.600,356.000"/><polygon fill="#8b9860" points="200.000,356.000 184.411,356.000 184.400,371.600"/><polygon fill="#8b9860" points="356.000,356.000 340.411,356.000 340.400,371.600"/><polygon fill="#8b9860" points="371.600,371.600 387.200,371.600 387.200,356.000"/><polygon fill="#8b9860" points="590.000,356.000 574.411,356.000 574.400,371.600"/><polygon fill="#8b9860" points="590.000,371.600 605.600,371.600 605.600,356.000"/><polygon fill="#8b9860" points="200.000,371.600 184.411,371.600 184.400,387.200"/><polygon fill="#8b9860" points="340.400,371.600 356.000,387.200 356.000,371.600"/><polygon fill="#8b9860" points="356.000,387.200 371.600,387.200 371.600,371.600"/><polygon fill="#8b9860" points="387.200,371.600 371.600,371.600 371.600,387.200"/><polygon fill="#8b9860" points="574.400,371.600 590.000,387.200 590.000,371.600"/><polygon fill="#8b9860" points="605.600,371.600 590.000,371.600 590.000,387.200"/><polygon fill="#8b9860" points="200.000,387.200 184.411,387.200 184.400,402.800"/><polygon fill="#8b9860" points="262.400,402.800 278.000,402.800 278.000,387.200"/><polygon fill="#8b9860" points="200.000,402.800 184.411,402.800 184.400,418.400"/><polygon fill="#8b9860" points="293.600,418.400 309.200,418.400 309.200,402.800"/><polygon fill="#8b9860" points="324.800,418.400 340.400,418.400 340.400,402.800"/><polygon fill="#8b9860" points="356.000,402.800 340.400,402.800 340.400,418.400"/><polygon fill="#8b9860" points="371.600,402.800 356.000,402.800 356.000,418.400"/><polygon fill="#8b9860" points="387.200,402.800 371.600,402.800 371.600,418.400"/><polygon fill="#8b9860" points="402.800,402.800 387.200,402.800 387.200,418.400"/><polygon fill="#8b9860" points="402.800,402.800 402.800,418.400 418.400,418.400"/><polygon fill="#8b9860" points="293.600,434.000 309.200,434.000 309.200,418.400"/><polygon fill="#8b9860" points="324.800,418.400 340.400,434.000 340.400,418.400"/><polygon fill="#8b9860" points="340.400,434.000 356.000,434.000 356.000,418.400"/><polygon fill="#8b9860" points="356.000,434.000 371.600,434.000 371.600,418.400"/><polygon fill="#8b9860" points="371.600,434.000 387.200,434.000 387.200,418.400"/><polygon fill="#8b9860" points="387.200,434.000 402.800,434.000 402.800,418.400"/><polygon fill="#8b9860" points="418.400,418.400 402.800,418.400 402.800,434.000"/><polygon fill="#8b9860" points="590.000,434.000 605.600,434.000 605.600,418.400"/><polygon fill="#8b9860" points="605.600,418.400 605.600,434.000 621.200,434.000"/><polygon fill="#8b9860" points="293.600,449.600 309.200,449.600 309.200,434.000"/><polygon fill="#8b9860" points="605.600,434.000 590.011,434.000 590.000,449.600"/><polygon fill="#8b9860" points="605.600,449.600 621.200,449.600 621.200,434.000"/><polygon fill="#8b9860" points="293.600,465.200 309.200,465.200 309.200,449.600"/><polygon fill="#8b9860" points="590.000,449.600 605.600,465.200 605.600,449.600"/><polygon fill="#8b9860" points="621.200,449.600 605.600,449.600 605.600,465.200"/><polygon fill="#8b9860" points="278.000,480.800 293.600,480.800 293.600,465.200"/><polygon fill="#8b9860" points="293.600,480.800 309.200,480.800 309.200,465.200"/><polygon fill="#8b9860" points="262.400,496.400 278.000,496.400 278.000,480.800"/><polygon fill="#8b9860" points="262.400,512.000 278.000,512.000 278.000,496.400"/><polygon fill="#8b9860" points="262.400,527.600 278.000,527.600 278.000,512.000"/><polygon fill="#8b9860" points="262.400,543.200 278.000,543.200 278.000,527.600"/><polygon fill="#8b9860" points="621.200,543.200 636.800,543.200 636.800,527.600"/><polygon fill="#8b9860" points="652.400,527.600 636.800,527.600 636.800,543.200"/><polygon fill="#8b9860" points="652.400,527.600 652.400,543.200 668.000,543.200"/><polygon fill="#8b9860" points="246.800,558.800 262.400,558.800 262.400,543.200"/><polygon fill="#8b9860" points="636.800,543.200 621.211,543.200 621.200,558.800"/><polygon fill="#8b9860" points="652.400,558.800 668.000,558.800 668.000,543.200"/><polygon fill="#8b9860" points="340.400,574.400 356.000,574.400 356.000,558.800"/><polygon fill="#8b9860" points="356.000,558.800 356.000,574.400 371.600,574.400"/><polygon fill="#8b9860" points="621.200,558.800 636.800,574.400 636.800,558.800"/><polygon fill="#8b9860" points="636.800,574.400 652.400,574.400 652.400,558.800"/><polygon fill="#8b9860" points="668.000,558.800 652.400,558.800 652.400,574.400"/><polygon fill="#8b9860" points="340.400,574.400 356.000,590.000 356.000,574.400"/><polygon fill="#8b9860" points="371.600,574.400 356.000,574.400 356.000,590.000"/><polygon fill="#86945e" points="621.200,262.400 636.800,262.400 636.800,246.800"/><polygon fill="#86945e" points="652.400,246.800 636.800,246.800 636.800,262.400"/><polygon fill="#86945e" points="434.000,262.400 418.400,262.400 418.400,278.000"/><polygon fill="#86945e" points="449.600,262.400 434.000,262.400 434.000,278.000"/><polygon fill="#86945e" points="465.200,262.400 449.600,262.400 449.600,278.000"/><polygon fill="#86945e" points="184.400,340.400 200.000,340.400 200.000,324.800"/><polygon fill="#86945e" points="184.400,356.000 200.000,356.000 200.000,340.400"/><polygon fill="#86945e" points="356.000,356.000 371.600,356.000 371.600,340.400"/><polygon fill="#86945e" points="184.400,371.600 200.000,371.600 200.000,356.000"/><polygon fill="#86945e" points="340.400,371.600 356.000,371.600 356.000,356.000"/><polygon fill="#86945e" points="387.200,356.000 371.600,356.000 371.600,371.600"/><polygon fill="#86945e" points="574.400,371.600 590.000,371.600 590.000,356.000"/><polygon fill="#86945e" points="605.600,356.000 590.000,356.000 590.000,371.600"/><polygon fill="#86945e" points="184.400,387.200 200.000,387.200 200.000,371.600"/><polygon fill="#86945e" points="371.600,371.600 356.000,371.600 356.000,387.200"/><polygon fill="#86945e" points="184.400,402.800 200.000,402.800 200.000,387.200"/><polygon fill="#86945e" points="278.000,387.200 262.400,387.200 262.400,402.800"/><polygon fill="#86945e" points="184.400,418.400 200.000,418.400 200.000,402.800"/><polygon fill="#86945e" points="309.200,402.800 293.600,402.800 293.600,418.400"/><polygon fill="#86945e" points="340.400,418.400 356.000,418.400 356.000,402.800"/><polygon fill="#86945e" points="356.000,418.400 371.600,418.400 371.600,402.800"/><polygon fill="#86945e" points="371.600,418.400 387.200,418.400 387.200,402.800"/><polygon fill="#86945e" points="387.200,418.400 402.800,418.400 402.800,402.800"/><polygon fill="#86945e" points="309.200,418.400 293.600,418.400 293.600,434.000"/><polygon fill="#86945e" points="356.000,418.400 340.400,418.400 340.400,434.000"/><polygon fill="#86945e" points="371.600,418.400 356.000,418.400 356.000,434.000"/><polygon fill="#86945e" points="387.200,418.400 371.600,418.400 371.600,434.000"/><polygon fill="#86945e" points="402.800,418.400 387.200,418.400 387.200,434.000"/><polygon fill="#86945e" points="309.200,434.000 293.600,434.000 293.600,449.600"/><polygon fill="#86945e" points="590.000,449.600 605.600,449.600 605.600,434.000"/><polygon fill="#86945e" points="621.200,434.000 605.600,434.000 605.600,449.600"/><polygon fill="#86945e" points="309.200,449.600 293.600,449.600 293.600,465.200"/><polygon fill="#86945e" points="293.600,465.200 278.000,465.200 278.000,480.800"/><polygon fill="#86945e" points="309.200,465.200 293.600,465.200 293.600,480.800"/><polygon fill="#86945e" points="278.000,480.800 262.400,480.800 262.400,496.400"/><polygon fill="#86945e" points="278.000,496.400 262.400,496.400 262.400,512.000"/><polygon fill="#86945e" points="278.000,512.000 262.400,512.000 262.400,527.600"/><polygon fill="#86945e" points="278.000,527.600 262.400,527.600 262.400,543.200"/><polygon fill="#86945e" points="636.800,543.200 652.400,543.200 652.400,527.600"/><polygon fill="#86945e" points="262.400,543.200 246.800,543.200 246.800,558.800"/><polygon fill="#86945e" points="621.200,558.800 636.800,558.800 636.800,543.200"/><polygon fill="#86945e" points="668.000,543.200 652.400,543.200 652.400,558.800"/><polygon fill="#86945e" points="652.400,558.800 636.800,558.800 636.800,574.400"/><polygon fill="#82905b" points="215.600,246.800 200.000,246.800 200.000,262.400"/><polygon fill="#82905b" points="200.000,262.400 215.600,262.400 215.600,246.800"/><polygon fill="#82905b" points="231.200,246.800 215.600,246.800 215.600,262.400"/><polygon fill="#82905b" points="215.600,262.400 231.200,262.400 231.200,246.800"/><polygon fill="#82905b" points="246.800,246.800 231.200,246.800 231.200,262.400"/><polygon fill="#82905b" points="231.200,262.400 246.800,262.400 246.800,246.800"/><polygon fill="#82905b" points="262.400,246.800 246.800,246.800 246.800,262.400"/><polygon fill="#82905b" points="246.800,262.400 262.400,262.400 262.400,246.800"/><polygon fill="#82905b" points="278.000,246.800 262.400,246.800 262.400,262.400"/><polygon fill="#82905b" points="262.400,262.400 278.000,262.400 278.000,246.800"/><polygon fill="#82905b" points="434.000,246.800 418.400,246.800 418.400,262.400"/><polygon fill="#82905b" points="418.400,262.400 434.000,262.400 434.000,246.800"/><polygon fill="#82905b" points="449.600,246.800 434.000,246.800 434.000,262.400"/><polygon fill="#82905b" points="434.000,262.400 449.600,262.400 449.600,246.800"/><polygon fill="#82905b" points="465.200,246.800 449.600,246.800 449.600,262.400"/><polygon fill="#82905b" points="449.600,262.400 465.200,262.400 465.200,246.800"/><polygon fill="#82905b" points="215.600,262.400 200.000,262.400 200.000,278.000"/><polygon fill="#82905b" points="200.000,278.000 215.600,278.000 215.600,262.400"/><polygon fill="#82905b" points="215.600,262.400 231.200,262.400 215.600,278.000"/><polygon fill="#82905b" points="246.800,262.400 262.400,262.400 262.400,278.000"/><polygon fill="#82905b" points="278.000,262.400 262.400,262.400 262.400,278.000"/><polygon fill="#82905b" points="262.400,278.000 278.000,278.000 278.000,262.400"/><polygon fill="#82905b" points="215.600,278.000 200.000,278.000 200.000,293.600"/><polygon fill="#82905b" points="200.000,293.600 215.600,293.600 215.600,278.000"/><polygon fill="#82905b" points="278.000,278.000 262.400,278.000 262.400,293.600"/><polygon fill="#82905b" points="262.400,293.600 278.000,293.600 278.000,278.000"/><polygon fill="#82905b" points="215.600,293.600 200.000,293.600 200.000,309.200"/><polygon fill="#82905b" points="200.000,309.200 215.600,309.200 215.600,293.600"/><polygon fill="#82905b" points="278.000,293.600 262.400,293.600 262.400,309.200"/><polygon fill="#82905b" points="262.400,309.200 278.000,309.200 278.000,293.600"/><polygon fill="#82905b" points="215.600,309.200 200.000,309.200 200.000,324.800"/><polygon fill="#82905b" points="200.000,324.800 215.600,324.800 215.600,309.200"/><polygon fill="#82905b" points="278.000,309.200 262.400,309.200 262.400,324.800"/><polygon fill="#82905b" points="262.400,324.800 278.000,324.800 278.000,309.200"/><polygon fill="#82905b" points="215.600,324.800 200.000,324.800 200.000,340.400"/><polygon fill="#82905b" points="200.000,340.400 215.600,340.400 215.600,324.800"/><polygon fill="#82905b" points="278.000,324.800 262.400,324.800 262.400,340.400"/><polygon fill="#82905b" points="262.400,340.400 278.000,340.400 278.000,324.800"/><polygon fill="#82905b" points="215.600,340.400 200.000,340.400 200.000,356.000"/><polygon fill="#82905b" points="200.000,356.000 215.600,356.000 215.600,340.400"/><polygon fill="#82905b" points="278.000,340.400 262.400,340.400 262.400,356.000"/><polygon fill="#82905b" points="262.400,356.000 278.000,356.000 278.000,340.400"/><polygon fill="#82905b" points="215.600,356.000 200.000,356.000 200.000,371.600"/><polygon fill="#82905b" points="200.000,371.600 215.600,371.600 215.600,356.000"/><polygon fill="#82905b" points="278.000,356.000 262.400,356.000 262.400,371.600"/><polygon fill="#82905b" points="262.400,371.600 278.000,371.600 278.000,356.000"/><polygon fill="#82905b" points="371.600,356.000 356.000,356.000 356.000,371.600"/><polygon fill="#82905b" points="356.000,371.600 371.600,371.600 371.600,356.000"/><polygon fill="#82905b" points="215.600,371.600 200.000,371.600 200.000,387.200"/><polygon fill="#82905b" points="200.000,387.200 215.600,387.200 215.600,371.600"/><polygon fill="#82905b" points="231.200,387.200 215.600,371.600 215.600,387.200"/><polygon fill="#82905b" points="262.400,387.200 262.400,371.600 246.800,387.200"/><polygon fill="#82905b" points="278.000,371.600 262.400,371.600 262.400,387.200"/><polygon fill="#82905b" points="262.400,387.200 278.000,387.200 278.000,371.600"/><polygon fill="#82905b" points="215.600,387.200 200.000,387.200 200.000,402.800"/><polygon fill="#82905b" points="200.000,402.800 215.600,402.800 215.600,387.200"/><polygon fill="#82905b" points="231.200,387.200 215.600,387.200 215.600,402.800"/><polygon fill="#82905b" points="215.600,402.800 231.200,402.800 231.200,387.200"/><polygon fill="#82905b" points="246.800,387.200 231.200,387.200 231.200,402.800"/><polygon fill="#82905b" points="231.200,402.800 246.800,402.800 246.800,387.200"/><polygon fill="#82905b" points="262.400,387.200 246.800,387.200 246.800,402.800"/><polygon fill="#82905b" points="246.800,402.800 262.400,402.800 262.400,387.200"/><polygon fill="#82905b" points="215.600,402.800 200.000,402.800 200.000,418.400"/><polygon fill="#82905b" points="200.000,418.400 215.600,418.400 215.600,402.800"/><polygon fill="#82905b" points="231.200,402.800 215.600,402.800 215.600,418.400"/><polygon fill="#82905b" points="215.600,418.400 231.200,418.400 231.200,402.800"/><polygon fill="#82905b" points="246.800,402.800 231.200,402.800 231.200,418.400"/><polygon fill="#82905b" points="231.200,418.400 246.800,418.400 246.800,402.800"/><polygon fill="#82905b" points="262.400,402.800 246.800,402.800 246.800,418.400"/><polygon fill="#82905b" points="246.800,418.400 262.400,418.400 262.400,402.800"/><polygon fill="#82905b" points="278.000,402.800 262.400,402.800 262.400,418.400"/><polygon fill="#82905b" points="262.400,418.400 278.000,418.400 278.000,402.800"/><polygon fill="#82905b" points="293.600,402.800 278.000,402.800 278.000,418.400"/><polygon fill="#82905b" points="278.000,418.400 293.600,418.400 293.600,402.800"/><polygon fill="#82905b" points="215.600,418.400 200.000,418.400 200.000,434.000"/><polygon fill="#82905b" points="200.000,434.000 215.600,434.000 215.600,418.400"/><polygon fill="#82905b" points="215.600,418.400 231.200,418.400 215.600,434.000"/><polygon fill="#82905b" points="246.800,418.400 262.400,418.400 262.400,434.000"/><polygon fill="#82905b" points="278.000,418.400 262.400,418.400 262.400,434.000"/><polygon fill="#82905b" points="262.400,434.000 278.000,434.000 278.000,418.400"/><polygon fill="#82905b" points="293.600,418.400 278.000,418.400 278.000,434.000"/><polygon fill="#82905b" points="278.000,434.000 293.600,434.000 293.600,418.400"/><polygon fill="#82905b" points="200.000,434.000 184.400,434.000 184.400,449.600"/><polygon fill="#82905b" points="184.400,449.600 200.000,449.600 200.000,434.000"/><polygon fill="#82905b" points="215.600,434.000 200.000,434.000 200.000,449.600"/><polygon fill="#82905b" points="200.000,449.600 215.600,449.600 215.600,434.000"/><polygon fill="#82905b" points="278.000,434.000 262.400,434.000 262.400,449.600"/><polygon fill="#82905b" points="262.400,449.600 278.000,449.600 278.000,434.000"/><polygon fill="#82905b" points="293.600,434.000 278.000,434.000 278.000,449.600"/><polygon fill="#82905b" points="278.000,449.600 293.600,449.600 293.600,434.000"/><polygon fill="#82905b" points="184.400,449.600 168.800,449.600 168.800,465.200"/><polygon fill="#82905b" points="168.800,465.200 184.400,465.200 184.400,449.600"/><polygon fill="#82905b" points="200.000,449.600 184.400,449.600 184.400,465.200"/><polygon fill="#82905b" points="184.400,465.200 200.000,465.200 200.000,449.600"/><polygon fill="#82905b" points="215.600,449.600 200.000,449.600 200.000,465.200"/><polygon fill="#82905b" points="200.000,465.200 215.600,465.200 215.600,449.600"/><polygon fill="#82905b" points="231.200,465.200 215.600,449.600 215.600,465.200"/><polygon fill="#82905b" points="262.400,465.200 262.400,449.600 246.800,465.200"/><polygon fill="#82905b" points="278.000,449.600 262.400,449.600 262.400,465.200"/><polygon fill="#82905b" points="262.400,465.200 278.000,465.200 278.000,449.600"/><polygon fill="#82905b" points="293.600,449.600 278.000,449.600 278.000,465.200"/><polygon fill="#82905b" points="278.000,465.200 293.600,465.200 293.600,449.600"/><polygon fill="#82905b" points="168.800,465.200 153.200,465.200 153.200,480.800"/><polygon fill="#82905b" points="153.200,480.800 168.800,480.800 168.800,465.200"/><polygon fill="#82905b" points="184.400,465.200 168.800,465.200 168.800,480.800"/><polygon fill="#82905b" points="168.800,480.800 184.400,480.800 184.400,465.200"/><polygon fill="#82905b" points="200.000,465.200 184.400,465.200 184.400,480.800"/><polygon fill="#82905b" points="184.400,480.800 200.000,480.800 200.000,465.200"/><polygon fill="#82905b" points="215.600,465.200 200.000,465.200 200.000,480.800"/><polygon fill="#82905b" points="200.000,480.800 215.600,480.800 215.600,465.200"/><polygon fill="#82905b" points="231.200,465.200 215.600,465.200 215.600,480.800"/><polygon fill="#82905b" points="215.600,480.800 231.200,480.800 231.200,465.200"/><polygon fill="#82905b" points="246.800,465.200 231.200,465.200 231.200,480.800"/><polygon fill="#82905b" points="231.200,480.800 246.800,480.800 246.800,465.200"/><polygon fill="#82905b" points="262.400,465.200 246.800,465.200 246.800,480.800"/><polygon fill="#82905b" points="246.800,480.800 262.400,480.800 262.400,465.200"/><polygon fill="#82905b" points="278.000,465.200 262.400,465.200 262.400,480.800"/><polygon fill="#82905b" points="262.400,480.800 278.000,480.800 278.000,465.200"/><polygon fill="#82905b" points="153.200,480.800 137.600,480.800 137.600,496.400"/><polygon fill="#82905b" points="137.600,496.400 153.200,496.400 153.200,480.800"/><polygon fill="#82905b" points="168.800,480.800 153.200,480.800 153.200,496.400"/><polygon fill="#82905b" points="153.200,496.400 168.800,496.400 168.800,480.800"/><polygon fill="#82905b" points="184.400,480.800 168.800,480.800 168.800,496.400"/><polygon fill="#82905b" points="168.800,496.400 184.400,496.400 184.400,480.800"/><polygon fill="#82905b" points="184.400,480.800 168.800,480.800 168.800,496.400"/><polygon fill="#82905b" points="168.800,496.400 184.400,496.400 184.400,480.800"/><polygon fill="#82905b" points="200.000,480.800 184.400,480.800 184.400,496.400"/><polygon fill="#82905b" points="184.400,496.400 200.000,496.400 200.000,480.800"/><polygon fill="#82905b" points="215.600,480.800 200.000,480.800 200.000,496.400"/><polygon fill="#82905b" points="200.000,496.400 215.600,496.400 215.600,480.800"/><polygon fill="#82905b" points="231.200,480.800 215.600,480.800 215.600,496.400"/><polygon fill="#82905b" points="215.600,496.400 231.200,496.400 231.200,480.800"/><polygon fill="#82905b" points="246.800,480.800 231.200,480.800 231.200,496.400"/><polygon fill="#82905b" points="231.200,496.400 246.800,496.400 246.800,480.800"/><polygon fill="#82905b" points="262.400,480.800 246.800,480.800 246.800,496.400"/><polygon fill="#82905b" points="246.800,496.400 262.400,496.400 262.400,480.800"/><polygon fill="#82905b" points="137.600,496.400 122.000,496.400 122.000,512.000"/><polygon fill="#82905b" points="122.000,512.000 137.600,512.000 137.600,496.400"/><polygon fill="#82905b" points="153.200,496.400 137.600,496.400 137.600,512.000"/><polygon fill="#82905b" points="137.600,512.000 153.200,512.000 153.200,496.400"/><polygon fill="#82905b" points="168.800,496.400 153.200,496.400 153.200,512.000"/><polygon fill="#82905b" points="153.200,512.000 168.800,512.000 168.800,496.400"/><polygon fill="#82905b" points="184.400,496.400 168.800,496.400 168.800,512.000"/><polygon fill="#82905b" points="168.800,512.000 184.400,512.000 184.400,496.400"/><polygon fill="#82905b" points="200.000,496.400 184.400,496.400 184.400,512.000"/><polygon fill="#82905b" points="184.400,512.000 200.000,512.000 200.000,496.400"/><polygon fill="#82905b" points="215.600,496.400 200.000,496.400 200.000,512.000"/><polygon fill="#82905b" points="200.000,512.000 215.600,512.000 215.600,496.400"/><polygon fill="#82905b" points="231.200,496.400 215.600,496.400 215.600,512.000"/><polygon fill="#82905b" points="215.600,512.000 231.200,512.000 231.200,496.400"/><polygon fill="#82905b" points="231.200,496.400 215.600,496.400 215.600,512.000"/><polygon fill="#82905b" points="215.600,512.000 231.200,512.000 231.200,496.400"/><polygon fill="#82905b" points="246.800,496.400 231.200,496.400 231.200,512.000"/><polygon fill="#82905b" points="231.200,512.000 246.800,512.000 246.800,496.400"/><polygon fill="#82905b" points="262.400,496.400 246.800,496.400 246.800,512.000"/><polygon fill="#82905b" points="246.800,512.000 262.400,512.000 262.400,496.400"/><polygon fill="#82905b" points="122.000,512.000 106.400,512.000 106.400,527.600"/><polygon fill="#82905b" points="106.400,527.600 122.000,527.600 122.000,512.000"/><polygon fill="#82905b" points="137.600,512.000 122.000,512.000 122.000,527.600"/><polygon fill="#82905b" points="122.000,527.600 137.600,527.600 137.600,512.000"/><polygon fill="#82905b" points="153.200,512.000 137.600,512.000 137.600,527.600"/><polygon fill="#82905b" points="137.600,527.600 153.200,527.600 153.200,512.000"/><polygon fill="#82905b" points="168.800,512.000 153.200,512.000 153.200,527.600"/><polygon fill="#82905b" points="153.200,527.600 168.800,527.600 168.800,512.000"/><polygon fill="#82905b" points="231.200,512.000 215.600,512.000 215.600,527.600"/><polygon fill="#82905b" points="215.600,527.600 231.200,527.600 231.200,512.000"/><polygon fill="#82905b" points="246.800,512.000 231.200,512.000 231.200,527.600"/><polygon fill="#82905b" points="231.200,527.600 246.800,527.600 246.800,512.000"/><polygon fill="#82905b" points="262.400,512.000 246.800,512.000 246.800,527.600"/><polygon fill="#82905b" points="246.800,527.600 262.400,527.600 262.400,512.000"/><polygon fill="#82905b" points="106.400,527.600 90.800,527.600 90.800,543.200"/><polygon fill="#82905b" points="90.800,543.200 106.400,543.200 106.400,527.600"/><polygon fill="#82905b" points="122.000,527.600 106.400,527.600 106.400,543.200"/><polygon fill="#82905b" points="106.400,543.200 122.000,543.200 122.000,527.600"/><polygon fill="#82905b" points="137.600,527.600 122.000,527.600 122.000,543.200"/><polygon fill="#82905b" points="122.000,543.200 137.600,543.200 137.600,527.600"/><polygon fill="#82905b" points="153.200,527.600 137.600,527.600 137.600,543.200"/><polygon fill="#82905b" points="137.600,543.200 153.200,543.200 153.200,527.600"/><polygon fill="#82905b" points="168.800,527.600 153.200,527.600 153.200,543.200"/><polygon fill="#82905b" points="153.200,543.200 168.800,543.200 168.800,527.600"/><polygon fill="#82905b" points="231.200,527.600 215.600,527.600 215.600,543.200"/><polygon fill="#82905b" points="215.600,543.200 231.200,543.200 231.200,527.600"/><polygon fill="#82905b" points="246.800,527.600 231.200,527.600 231.200,543.200"/><polygon fill="#82905b" points="231.200,543.200 246.800,543.200 246.800,527.600"/><polygon fill="#82905b" points="262.400,527.600 246.800,527.600 246.800,543.200"/><polygon fill="#82905b" points="246.800,543.200 262.400,543.200 262.400,527.600"/><polygon fill="#82905b" points="90.800,543.200 75.200,543.200 75.200,558.800"/><polygon fill="#82905b" points="75.200,558.800 90.800,558.800 90.800,543.200"/><polygon fill="#82905b" points="106.400,543.200 90.800,543.200 90.800,558.800"/><polygon fill="#82905b" points="90.800,558.800 106.400,558.800 106.400,543.200"/><polygon fill="#82905b" points="122.000,543.200 106.400,543.200 106.400,558.800"/><polygon fill="#82905b" points="106.400,558.800 122.000,558.800 122.000,543.200"/><polygon fill="#82905b" points="137.600,543.200 122.000,543.200 122.000,558.800"/><polygon fill="#82905b" points="122.000,558.800 137.600,558.800 137.600,543.200"/><polygon fill="#82905b" points="231.200,543.200 215.600,543.200 215.600,558.800"/><polygon fill="#82905b" points="215.600,558.800 231.200,558.800 231.200,543.200"/><polygon fill="#82905b" points="246.800,543.200 231.200,543.200 231.200,558.800"/><polygon fill="#82905b" points="231.200,558.800 246.800,558.800 246.800,543.200"/><polygon fill="#82905b" points="652.400,543.200 636.800,543.200 636.800,558.800"/><polygon fill="#82905b" points="636.800,558.800 652.400,558.800 652.400,543.200"/><polygon fill="#82905b" points="75.200,558.800 59.600,558.800 59.600,574.400"/><polygon fill="#82905b" points="59.600,574.400 75.200,574.400 75.200,558.800"/><polygon fill="#82905b" points="75.200,558.800 90.800,558.800 75.200,574.400"/><polygon fill="#82905b" points="90.800,558.800 106.400,558.800 106.400,574.400"/><polygon fill="#82905b" points="122.000,558.800 106.400,558.800 106.400,574.400"/><polygon fill="#82905b" points="106.400,574.400 122.000,574.400 122.000,558.800"/><polygon fill="#82905b" points="75.200,574.400 59.600,574.400 59.600,590.000"/><polygon fill="#82905b" points="59.600,590.000 75.200,590.000 75.200,574.400"/><polygon fill="#82905b" points="122.000,574.400 106.400,574.400 106.400,590.000"/><polygon fill="#82905b" points="106.400,590.000 122.000,590.000 122.000,574.400"/><polygon fill="#82905b" points="75.200,590.000 59.600,590.000 59.600,605.600"/><polygon fill="#82905b" points="59.600,605.600 75.200,605.600 75.200,590.000"/><polygon fill="#82905b" points="122.000,590.000 106.400,590.000 106.400,605.600"/><polygon fill="#82905b" points="106.400,605.600 122.000,605.600 122.000,590.000"/><polygon fill="#82905b" points="75.200,605.600 59.600,605.600 59.600,621.200"/><polygon fill="#82905b" points="59.600,621.200 75.200,621.200 75.200,605.600"/><polygon fill="#82905b" points="122.000,605.600 106.400,605.600 106.400,621.200"/><polygon fill="#82905b" points="106.400,621.200 122.000,621.200 122.000,605.600"/><polygon fill="#82905b" points="75.200,621.200 59.600,621.200 59.600,636.800"/><polygon fill="#82905b" points="59.600,636.800 75.200,636.800 75.200,621.200"/><polygon fill="#82905b" points="122.000,621.200 106.400,621.200 106.400,636.800"/><polygon fill="#82905b" points="106.400,636.800 122.000,636.800 122.000,621.200"/><polygon fill="#82905b" points="75.200,636.800 59.600,636.800 59.600,652.400"/><polygon fill="#82905b" points="59.600,652.400 75.200,652.400 75.200,636.800"/><polygon fill="#82905b" points="122.000,636.800 106.400,636.800 106.400,652.400"/><polygon fill="#82905b" points="106.400,652.400 122.000,652.400 122.000,636.800"/><polygon fill="#82905b" points="75.200,652.400 59.600,652.400 59.600,668.000"/><polygon fill="#82905b" points="59.600,668.000 75.200,668.000 75.200,652.400"/><polygon fill="#82905b" points="122.000,652.400 106.400,652.400 106.400,668.000"/><polygon fill="#82905b" points="106.400,668.000 122.000,668.000 122.000,652.400"/><polygon fill="#82905b" points="75.200,668.000 59.600,668.000 59.600,683.600"/><polygon fill="#82905b" points="59.600,683.600 75.200,683.600 75.200,668.000"/><polygon fill="#82905b" points="122.000,668.000 106.400,668.000 106.400,683.600"/><polygon fill="#82905b" points="106.400,683.600 122.000,683.600 122.000,668.000"/><polygon fill="#82905b" points="75.200,683.600 59.600,683.600 59.600,699.200"/><polygon fill="#82905b" points="59.600,699.200 75.200,699.200 75.200,683.600"/><polygon fill="#82905b" points="122.000,683.600 106.400,683.600 106.400,699.200"/><polygon fill="#82905b" points="106.400,699.200 122.000,699.200 122.000,683.600"/><polygon fill="#82905b" points="75.200,699.200 59.600,699.200 59.600,714.800"/><polygon fill="#82905b" points="59.600,714.800 75.200,714.800 75.200,699.200"/><polygon fill="#82905b" points="122.000,699.200 106.400,699.200 106.400,714.800"/><polygon fill="#82905b" points="106.400,714.800 122.000,714.800 122.000,699.200"/><polygon fill="#82905b" points="75.200,714.800 59.600,714.800 59.600,730.400"/><polygon fill="#82905b" points="59.600,730.400 75.200,730.400 75.200,714.800"/><polygon fill="#82905b" points="122.000,714.800 106.400,714.800 106.400,730.400"/><polygon fill="#82905b" points="106.400,730.400 122.000,730.400 122.000,714.800"/><polygon fill="#82905b" points="75.200,730.400 59.600,730.400 59.600,746.000"/><polygon fill="#82905b" points="59.600,746.000 75.200,746.000 75.200,730.400"/><polygon fill="#82905b" points="122.000,730.400 106.400,730.400 106.400,746.000"/><polygon fill="#82905b" points="106.400,746.000 122.000,746.000 122.000,730.400"/><polygon fill="#82905b" points="75.200,746.000 59.600,746.000 59.600,761.600"/><polygon fill="#82905b" points="59.600,761.600 75.200,761.600 75.200,746.000"/><polygon fill="#82905b" points="122.000,746.000 106.400,746.000 106.400,761.600"/><polygon fill="#82905b" points="106.400,761.600 122.000,761.600 122.000,746.000"/><polygon fill="#568a99" points="517.850,59.600 517.850,44.000 521.750,44.000"/><polygon fill="#568a99" points="521.750,44.000 521.750,59.600 517.850,59.600"/><polygon fill="#568a99" points="517.850,75.200 517.850,59.600 521.750,59.600"/><polygon fill="#568a99" points="521.750,59.600 521.750,75.200 517.850,75.200"/><polygon fill="#568a99" points="517.850,90.800 517.850,75.200 521.750,75.200"/><polygon fill="#568a99" points="521.750,75.200 521.750,90.800 517.850,90.800"/><polygon fill="#568a99" points="517.850,106.400 517.850,90.800 521.750,90.800"/><polygon fill="#568a99" points="521.750,90.800 521.750,106.400 517.850,106.400"/><polygon fill="#568a99" points="517.850,122.000 517.850,106.400 521.750,106.400"/><polygon fill="#568a99" points="521.750,106.400 521.750,122.000 517.850,122.000"/><polygon fill="#568a99" points="517.850,137.600 517.850,122.000 521.750,122.000"/><polygon fill="#568a99" points="521.750,122.000 521.750,137.600 517.850,137.600"/><polygon fill="#568a99" points="517.850,153.200 517.850,137.600 521.750,137.600"/><polygon fill="#568a99" points="521.750,137.600 521.750,153.200 517.850,153.200"/><polygon fill="#568a99" points="517.850,168.800 517.850,153.200 521.750,153.200"/><polygon fill="#568a99" points="521.750,153.200 521.750,168.800 517.850,168.800"/><polygon fill="#568a99" points="517.850,184.400 517.850,168.800 521.750,168.800"/><polygon fill="#568a99" points="521.750,168.800 521.750,184.400 517.850,184.400"/><polygon fill="#568a99" points="517.850,200.000 517.850,184.400 521.750,184.400"/><polygon fill="#568a99" points="521.750,184.400 521.750,200.000 517.850,200.000"/><polygon fill="#568a99" points="517.850,215.600 517.850,200.000 521.750,200.000"/><polygon fill="#568a99" points="521.750,200.000 521.750,215.600 517.850,215.600"/><polygon fill="#568a99" points="517.850,231.200 517.850,215.600 521.750,215.600"/><polygon fill="#568a99" points="521.750,215.600 521.750,231.200 517.850,231.200"/><polygon fill="#568a99" points="517.850,246.800 517.850,231.200 521.750,231.200"/><polygon fill="#568a99" points="521.750,231.200 521.750,246.800 517.850,246.800"/><polygon fill="#568a99" points="517.850,262.400 517.850,246.800 521.750,246.800"/><polygon fill="#568a99" points="521.750,246.800 521.750,262.400 517.850,262.400"/><polygon fill="#568a99" points="517.850,278.000 517.850,262.400 521.750,262.400"/><polygon fill="#568a99" points="521.750,262.400 521.750,278.000 517.850,278.000"/><polygon fill="#568a99" points="502.250,293.600 512.000,283.850 512.000,287.750"/><polygon fill="#568a99" points="512.000,287.750 506.150,293.600 502.250,293.600"/><polygon fill="#568a99" points="512.000,283.850 517.850,278.000 521.750,278.000"/><polygon fill="#568a99" points="521.750,278.000 512.000,287.750 512.000,283.850"/><polygon fill="#568a99" points="486.650,309.200 496.400,299.450 496.400,303.350"/><polygon fill="#568a99" points="496.400,303.350 490.550,309.200 486.650,309.200"/><polygon fill="#568a99" points="496.400,299.450 502.250,293.600 506.150,293.600"/><polygon fill="#568a99" points="506.150,293.600 496.400,303.350 496.400,299.450"/><polygon fill="#568a99" points="471.050,324.800 480.800,315.050 480.800,318.950"/><polygon fill="#568a99" points="480.800,318.950 474.950,324.800 471.050,324.800"/><polygon fill="#568a99" points="480.800,315.050 486.650,309.200 490.550,309.200"/><polygon fill="#568a99" points="490.550,309.200 480.800,318.950 480.800,315.050"/><polygon fill="#568a99" points="455.450,340.400 465.200,330.650 465.200,334.550"/><polygon fill="#568a99" points="465.200,334.550 459.350,340.400 455.450,340.400"/><polygon fill="#568a99" points="465.200,330.650 471.050,324.800 474.950,324.800"/><polygon fill="#568a99" points="474.950,324.800 465.200,334.550 465.200,330.650"/><polygon fill="#568a99" points="455.450,356.000 455.450,340.400 459.350,340.400"/><polygon fill="#568a99" points="459.350,340.400 459.350,356.000 455.450,356.000"/><polygon fill="#568a99" points="455.450,371.600 455.450,356.000 459.350,356.000"/><polygon fill="#568a99" points="459.350,356.000 459.350,371.600 455.450,371.600"/><polygon fill="#568a99" points="455.450,387.200 455.450,371.600 459.350,371.600"/><polygon fill="#568a99" points="459.350,371.600 459.350,387.200 455.450,387.200"/><polygon fill="#568a99" points="455.450,402.800 455.450,387.200 459.350,387.200"/><polygon fill="#568a99" points="459.350,387.200 459.350,402.800 455.450,402.800"/><polygon fill="#568a99" points="455.450,418.400 455.450,402.800 459.350,402.800"/><polygon fill="#568a99" points="459.350,402.800 459.350,418.400 455.450,418.400"/><polygon fill="#568a99" points="439.850,434.000 449.600,424.250 449.600,428.150"/><polygon fill="#568a99" points="449.600,428.150 443.750,434.000 439.850,434.000"/><polygon fill="#568a99" points="449.600,424.250 455.450,418.400 459.350,418.400"/><polygon fill="#568a99" points="459.350,418.400 449.600,428.150 449.600,424.250"/><polygon fill="#568a99" points="424.250,449.600 434.000,439.850 434.000,443.750"/><polygon fill="#568a99" points="434.000,443.750 428.150,449.600 424.250,449.600"/><polygon fill="#568a99" points="434.000,439.850 439.850,434.000 443.750,434.000"/><polygon fill="#568a99" points="443.750,434.000 434.000,443.750 434.000,439.850"/><polygon fill="#568a99" points="408.650,465.200 418.400,455.450 418.400,459.350"/><polygon fill="#568a99" points="418.400,459.350 412.550,465.200 408.650,465.200"/><polygon fill="#568a99" points="418.400,455.450 424.250,449.600 428.150,449.600"/><polygon fill="#568a99" points="428.150,449.600 418.400,459.350 418.400,455.450"/><polygon fill="#568a99" points="393.050,480.800 402.800,471.050 402.800,474.950"/><polygon fill="#568a99" points="402.800,474.950 396.950,480.800 393.050,480.800"/><polygon fill="#568a99" points="402.800,471.050 408.650,465.200 412.550,465.200"/><polygon fill="#568a99" points="412.550,465.200 402.800,474.950 402.800,471.050"/><polygon fill="#568a99" points="346.250,496.400 356.000,486.650 356.000,490.550"/><polygon fill="#568a99" points="356.000,490.550 350.150,496.400 346.250,496.400"/><polygon fill="#568a99" points="371.600,486.650 356.000,486.650 356.000,490.550"/><polygon fill="#568a99" points="356.000,490.550 371.600,490.550 371.600,486.650"/><polygon fill="#568a99" points="387.200,486.650 371.600,486.650 371.600,490.550"/><polygon fill="#568a99" points="371.600,490.550 387.200,490.550 387.200,486.650"/><polygon fill="#568a99" points="387.200,486.650 393.050,480.800 396.950,480.800"/><polygon fill="#568a99" points="396.950,480.800 387.200,490.550 387.200,486.650"/><polygon fill="#568a99" points="330.650,512.000 340.400,502.250 340.400,506.150"/><polygon fill="#568a99" points="340.400,506.150 334.550,512.000 330.650,512.000"/><polygon fill="#568a99" points="340.400,502.250 346.250,496.400 350.150,496.400"/><polygon fill="#568a99" points="350.150,496.400 340.400,506.150 340.400,502.250"/><polygon fill="#568a99" points="315.050,527.600 324.800,517.850 324.800,521.750"/><polygon fill="#568a99" points="324.800,521.750 318.950,527.600 315.050,527.600"/><polygon fill="#568a99" points="324.800,517.850 330.650,512.000 334.550,512.000"/><polygon fill="#568a99" points="334.550,512.000 324.800,521.750 324.800,517.850"/><polygon fill="#568a99" points="299.450,543.200 309.200,533.450 309.200,537.350"/><polygon fill="#568a99" points="309.200,537.350 303.350,543.200 299.450,543.200"/><polygon fill="#568a99" points="309.200,533.450 315.050,527.600 318.950,527.600"/><polygon fill="#568a99" points="318.950,527.600 309.200,537.350 309.200,533.450"/><polygon fill="#568a99" points="299.450,558.800 299.450,543.200 303.350,543.200"/><polygon fill="#568a99" points="303.350,543.200 303.350,558.800 299.450,558.800"/><polygon fill="#568a99" points="299.450,574.400 299.450,558.800 303.350,558.800"/><polygon fill="#568a99" points="303.350,558.800 303.350,574.400 299.450,574.400"/><polygon fill="#568a99" points="299.450,590.000 299.450,574.400 303.350,574.400"/><polygon fill="#568a99" points="303.350,574.400 303.350,590.000 299.450,590.000"/><polygon fill="#568a99" points="299.450,605.600 299.450,590.000 303.350,590.000"/><polygon fill="#568a99" points="303.350,590.000 303.350,605.600 299.450,605.600"/><polygon fill="#568a99" points="299.450,621.200 299.450,605.600 303.350,605.600"/><polygon fill="#568a99" points="303.350,605.600 303.350,621.200 299.450,621.200"/><polygon fill="#568a99" points="299.450,636.800 299.450,621.200 303.350,621.200"/><polygon fill="#568a99" points="303.350,621.200 303.350,636.800 299.450,636.800"/><polygon fill="#568a99" points="299.450,652.400 299.450,636.800 303.350,636.800"/><polygon fill="#568a99" points="303.350,636.800 303.350,652.400 299.450,652.400"/><polygon fill="#568a99" points="299.450,668.000 299.450,652.400 303.350,652.400"/><polygon fill="#568a99" points="303.350,652.400 303.350,668.000 299.450,668.000"/><polygon fill="#568a99" points="299.450,683.600 299.450,668.000 303.350,668.000"/><polygon fill="#568a99" points="303.350,668.000 303.350,683.600 299.450,683.600"/><polygon fill="#568a99" points="299.450,699.200 299.450,683.600 303.350,683.600"/><polygon fill="#568a99" points="303.350,683.600 303.350,699.200 299.450,699.200"/><polygon fill="#568a99" points="299.450,714.800 299.450,699.200 303.350,699.200"/><polygon fill="#568a99" points="303.350,699.200 303.350,714.800 299.450,714.800"/><polygon fill="#568a99" points="299.450,730.400 299.450,714.800 303.350,714.800"/><polygon fill="#568a99" points="303.350,714.800 303.350,730.400 299.450,730.400"/><polygon fill="#568a99" points="299.450,746.000 299.450,730.400 303.350,730.400"/><polygon fill="#568a99" points="303.350,730.400 303.350,746.000 299.450,746.000"/><polygon fill="#568a99" points="299.450,761.600 299.450,746.000 303.350,746.000"/><polygon fill="#568a99" points="303.350,746.000 303.350,761.600 299.450,761.600"/><polygon fill="#568a99" points="299.450,777.200 299.450,761.600 303.350,761.600"/><polygon fill="#568a99" points="303.350,761.600 303.350,777.200 299.450,777.200"/><polygon fill="#568a99" points="299.450,792.800 299.450,777.200 303.350,777.200"/><polygon fill="#568a99" points="303.350,777.200 303.350,792.800 299.450,792.800"/><polygon fill="#8b6950" points="224.375,44.000 222.425,44.000 222.425,59.600"/><polygon fill="#8b6950" points="222.425,59.600 224.375,59.600 224.375,44.000"/><polygon fill="#8b6950" points="224.375,59.600 222.425,59.600 222.425,75.200"/><polygon fill="#8b6950" points="222.425,75.200 224.375,75.200 224.375,59.600"/><polygon fill="#8b6950" points="224.375,75.200 222.425,75.200 222.425,90.800"/><polygon fill="#8b6950" points="222.425,90.800 224.375,90.800 224.375,75.200"/><polygon fill="#8b6950" points="224.375,90.800 222.425,90.800 222.425,106.400"/><polygon fill="#8b6950" points="222.425,106.400 224.375,106.400 224.375,90.800"/><polygon fill="#8b6950" points="224.375,106.400 222.425,106.400 222.425,122.000"/><polygon fill="#8b6950" points="222.425,122.000 224.375,122.000 224.375,106.400"/><polygon fill="#8b6950" points="224.375,122.000 222.425,122.000 222.425,137.600"/><polygon fill="#8b6950" points="222.425,137.600 224.375,137.600 224.375,122.000"/><polygon fill="#8b6950" points="224.375,137.600 222.425,137.600 222.425,153.200"/><polygon fill="#8b6950" points="222.425,153.200 224.375,153.200 224.375,137.600"/><polygon fill="#8b6950" points="224.375,153.200 222.425,153.200 222.425,168.800"/><polygon fill="#8b6950" points="222.425,168.800 224.375,168.800 224.375,153.200"/><polygon fill="#8b6950" points="224.375,168.800 222.425,168.800 222.425,184.400"/><polygon fill="#8b6950" points="222.425,184.400 224.375,184.400 224.375,168.800"/><polygon fill="#8b6950" points="224.375,184.400 222.425,184.400 222.425,200.000"/><polygon fill="#8b6950" points="222.425,200.000 224.375,200.000 224.375,184.400"/><polygon fill="#8b6950" points="224.375,200.000 222.425,200.000 222.425,215.600"/><polygon fill="#8b6950" points="222.425,215.600 224.375,215.600 224.375,200.000"/><polygon fill="#8b6950" points="224.375,215.600 222.425,215.600 222.425,231.200"/><polygon fill="#8b6950" points="222.425,231.200 224.375,231.200 224.375,215.600"/><polygon fill="#8b6950" points="200.000,239.975 200.000,238.025 191.225,246.800"/><polygon fill="#8b6950" points="191.225,246.800 193.175,246.800 200.000,239.975"/><polygon fill="#8b6950" points="215.600,239.975 215.600,238.025 200.000,238.025"/><polygon fill="#8b6950" points="200.000,238.025 200.000,239.975 215.600,239.975"/><polygon fill="#8b6950" points="231.200,239.975 231.200,238.025 215.600,238.025"/><polygon fill="#8b6950" points="215.600,238.025 215.600,239.975 231.200,239.975"/><polygon fill="#8b6950" points="224.375,231.200 222.425,231.200 222.425,246.800"/><polygon fill="#8b6950" points="222.425,246.800 224.375,246.800 224.375,231.200"/><polygon fill="#8b6950" points="246.800,239.975 246.800,238.025 231.200,238.025"/><polygon fill="#8b6950" points="231.200,238.025 231.200,239.975 246.800,239.975"/><polygon fill="#8b6950" points="262.400,239.975 262.400,238.025 246.800,238.025"/><polygon fill="#8b6950" points="246.800,238.025 246.800,239.975 262.400,239.975"/><polygon fill="#8b6950" points="278.000,239.975 278.000,238.025 262.400,238.025"/><polygon fill="#8b6950" points="262.400,238.025 262.400,239.975 278.000,239.975"/><polygon fill="#8b6950" points="278.000,238.025 278.000,239.975 284.825,246.800"/><polygon fill="#8b6950" points="284.825,246.800 286.775,246.800 278.000,238.025"/><polygon fill="#8b6950" points="193.175,246.800 191.225,246.800 191.225,262.400"/><polygon fill="#8b6950" points="191.225,262.400 193.175,262.400 193.175,246.800"/><polygon fill="#8b6950" points="286.775,246.800 284.825,246.800 284.825,262.400"/><polygon fill="#8b6950" points="284.825,262.400 286.775,262.400 286.775,246.800"/><polygon fill="#8b6950" points="193.175,262.400 191.225,262.400 191.225,278.000"/><polygon fill="#8b6950" points="191.225,278.000 193.175,278.000 193.175,262.400"/><polygon fill="#8b6950" points="286.775,262.400 284.825,262.400 284.825,278.000"/><polygon fill="#8b6950" points="284.825,278.000 286.775,278.000 286.775,262.400"/><polygon fill="#8b6950" points="193.175,278.000 191.225,278.000 191.225,293.600"/><polygon fill="#8b6950" points="191.225,293.600 193.175,293.600 193.175,278.000"/><polygon fill="#8b6950" points="286.775,278.000 284.825,278.000 284.825,293.600"/><polygon fill="#8b6950" points="284.825,293.600 286.775,293.600 286.775,278.000"/><polygon fill="#8b6950" points="184.400,302.375 184.400,300.425 175.625,309.200"/><polygon fill="#8b6950" points="175.625,309.200 177.575,309.200 184.400,302.375"/><polygon fill="#8b6950" points="193.175,293.600 191.225,293.600 184.400,300.425"/><polygon fill="#8b6950" points="184.400,300.425 184.400,302.375 193.175,293.600"/><polygon fill="#8b6950" points="286.775,293.600 284.825,293.600 284.825,309.200"/><polygon fill="#8b6950" points="284.825,309.200 286.775,309.200 286.775,293.600"/><polygon fill="#8b6950" points="59.600,317.975 59.600,316.025 44.000,316.025"/><polygon fill="#8b6950" points="44.000,316.025 44.000,317.975 59.600,317.975"/><polygon fill="#8b6950" points="75.200,317.975 75.200,316.025 59.600,316.025"/><polygon fill="#8b6950" points="59.600,316.025 59.600,317.975 75.200,317.975"/><polygon fill="#8b6950" points="90.800,317.975 90.800,316.025 75.200,316.025"/><polygon fill="#8b6950" points="75.200,316.025 75.200,317.975 90.800,317.975"/><polygon fill="#8b6950" points="106.400,317.975 106.400,316.025 90.800,316.025"/><polygon fill="#8b6950" points="90.800,316.025 90.800,317.975 106.400,317.975"/><polygon fill="#8b6950" points="122.000,317.975 122.000,316.025 106.400,316.025"/><polygon fill="#8b6950" points="106.400,316.025 106.400,317.975 122.000,317.975"/><polygon fill="#8b6950" points="137.600,317.975 137.600,316.025 122.000,316.025"/><polygon fill="#8b6950" points="122.000,316.025 122.000,317.975 137.600,317.975"/><polygon fill="#8b6950" points="153.200,317.975 153.200,316.025 137.600,316.025"/><polygon fill="#8b6950" points="137.600,316.025 137.600,317.975 153.200,317.975"/><polygon fill="#8b6950" points="168.800,317.975 168.800,316.025 153.200,316.025"/><polygon fill="#8b6950" points="153.200,316.025 153.200,317.975 168.800,317.975"/><polygon fill="#8b6950" points="177.575,309.200 175.625,309.200 168.800,316.025"/><polygon fill="#8b6950" points="168.800,316.025 168.800,317.975 177.575,309.200"/><polygon fill="#8b6950" points="286.775,309.200 284.825,309.200 284.825,324.800"/><polygon fill="#8b6950" points="284.825,324.800 286.775,324.800 286.775,309.200"/><polygon fill="#8b6950" points="286.775,324.800 284.825,324.800 284.825,340.400"/><polygon fill="#8b6950" points="284.825,340.400 286.775,340.400 286.775,324.800"/><polygon fill="#8b6950" points="286.775,340.400 284.825,340.400 284.825,356.000"/><polygon fill="#8b6950" points="284.825,356.000 286.775,356.000 286.775,340.400"/><polygon fill="#8b6950" points="286.775,356.000 284.825,356.000 284.825,371.600"/><polygon fill="#8b6950" points="284.825,371.600 286.775,371.600 286.775,356.000"/><polygon fill="#8b6950" points="286.775,371.600 284.825,371.600 284.825,387.200"/><polygon fill="#8b6950" points="284.825,387.200 286.775,387.200 286.775,371.600"/><polygon fill="#8b6950" points="293.600,395.975 293.600,394.025 286.775,387.200"/><polygon fill="#8b6950" points="286.775,387.200 284.825,387.200 293.600,395.975"/><polygon fill="#8b6950" points="309.200,395.975 309.200,394.025 293.600,394.025"/><polygon fill="#8b6950" points="293.600,394.025 293.600,395.975 309.200,395.975"/><polygon fill="#8b6950" points="324.800,395.975 324.800,394.025 309.200,394.025"/><polygon fill="#8b6950" points="309.200,394.025 309.200,395.975 324.800,395.975"/><polygon fill="#8b6950" points="340.400,395.975 340.400,394.025 324.800,394.025"/><polygon fill="#8b6950" points="324.800,394.025 324.800,395.975 340.400,395.975"/><polygon fill="#8b6950" points="356.000,395.975 356.000,394.025 340.400,394.025"/><polygon fill="#8b6950" points="340.400,394.025 340.400,395.975 356.000,395.975"/><polygon fill="#8b6950" points="371.600,395.975 371.600,394.025 356.000,394.025"/><polygon fill="#8b6950" points="356.000,394.025 356.000,395.975 371.600,395.975"/><polygon fill="#8b6950" points="387.200,395.975 387.200,394.025 371.600,394.025"/><polygon fill="#8b6950" points="371.600,394.025 371.600,395.975 387.200,395.975"/><polygon fill="#8b6950" points="402.800,395.975 402.800,394.025 387.200,394.025"/><polygon fill="#8b6950" points="387.200,394.025 387.200,395.975 402.800,395.975"/><polygon fill="#8b6950" points="418.400,395.975 418.400,394.025 402.800,394.025"/><polygon fill="#8b6950" points="402.800,394.025 402.800,395.975 418.400,395.975"/><polygon fill="#8b6950" points="434.000,395.975 434.000,394.025 418.400,394.025"/><polygon fill="#8b6950" points="418.400,394.025 418.400,395.975 434.000,395.975"/><polygon fill="#8b6950" points="449.600,395.975 449.600,394.025 434.000,394.025"/><polygon fill="#8b6950" points="434.000,394.025 434.000,395.975 449.600,395.975"/><polygon fill="#8b6950" points="465.200,395.975 465.200,394.025 449.600,394.025"/><polygon fill="#8b6950" points="449.600,394.025 449.600,395.975 465.200,395.975"/><polygon fill="#8b6950" points="480.800,395.975 480.800,394.025 465.200,394.025"/><polygon fill="#8b6950" points="465.200,394.025 465.200,395.975 480.800,395.975"/><polygon fill="#8b6950" points="496.400,395.975 496.400,394.025 480.800,394.025"/><polygon fill="#8b6950" points="480.800,394.025 480.800,395.975 496.400,395.975"/><polygon fill="#8b6950" points="512.000,395.975 512.000,394.025 496.400,394.025"/><polygon fill="#8b6950" points="496.400,394.025 496.400,395.975 512.000,395.975"/><polygon fill="#8b6950" points="527.600,395.975 527.600,394.025 512.000,394.025"/><polygon fill="#8b6950" points="512.000,394.025 512.000,395.975 527.600,395.975"/><polygon fill="#8b6950" points="543.200,395.975 543.200,394.025 527.600,394.025"/><polygon fill="#8b6950" points="527.600,394.025 527.600,395.975 543.200,395.975"/><polygon fill="#8b6950" points="558.800,395.975 558.800,394.025 543.200,394.025"/><polygon fill="#8b6950" points="543.200,394.025 543.200,395.975 558.800,395.975"/><polygon fill="#8b6950" points="574.400,395.975 574.400,394.025 558.800,394.025"/><polygon fill="#8b6950" points="558.800,394.025 558.800,395.975 574.400,395.975"/><polygon fill="#8b6950" points="590.000,395.975 590.000,394.025 574.400,394.025"/><polygon fill="#8b6950" points="574.400,394.025 574.400,395.975 590.000,395.975"/><polygon fill="#8b6950" points="605.600,395.975 605.600,394.025 590.000,394.025"/><polygon fill="#8b6950" points="590.000,394.025 590.000,395.975 605.600,395.975"/><polygon fill="#8b6950" points="621.200,395.975 621.200,394.025 605.600,394.025"/><polygon fill="#8b6950" points="605.600,394.025 605.600,395.975 621.200,395.975"/><polygon fill="#8b6950" points="636.800,395.975 636.800,394.025 621.200,394.025"/><polygon fill="#8b6950" points="621.200,394.025 621.200,395.975 636.800,395.975"/><polygon fill="#8b6950" points="652.400,395.975 652.400,394.025 636.800,394.025"/><polygon fill="#8b6950" points="636.800,394.025 636.800,395.975 652.400,395.975"/><polygon fill="#8b6950" points="652.400,394.025 652.400,395.975 659.225,402.800"/><polygon fill="#8b6950" points="659.225,402.800 661.175,402.800 652.400,394.025"/><polygon fill="#8b6950" points="668.000,411.575 668.000,409.625 661.175,402.800"/><polygon fill="#8b6950" points="661.175,402.800 659.225,402.800 668.000,411.575"/><polygon fill="#8b6950" points="668.000,409.625 668.000,411.575 674.825,418.400"/><polygon fill="#8b6950" points="674.825,418.400 676.775,418.400 668.000,409.625"/><polygon fill="#8b6950" points="676.775,418.400 674.825,418.400 674.825,434.000"/><polygon fill="#8b6950" points="674.825,434.000 676.775,434.000 676.775,418.400"/><polygon fill="#8b6950" points="676.775,434.000 674.825,434.000 674.825,449.600"/><polygon fill="#8b6950" points="674.825,449.600 676.775,449.600 676.775,434.000"/><polygon fill="#8b6950" points="676.775,449.600 674.825,449.600 674.825,465.200"/><polygon fill="#8b6950" points="674.825,465.200 676.775,465.200 676.775,449.600"/><polygon fill="#8b6950" points="676.775,465.200 674.825,465.200 674.825,480.800"/><polygon fill="#8b6950" points="674.825,480.800 676.775,480.800 676.775,465.200"/><polygon fill="#8b6950" points="676.775,480.800 674.825,480.800 674.825,496.400"/><polygon fill="#8b6950" points="674.825,496.400 676.775,496.400 676.775,480.800"/><polygon fill="#8b6950" points="676.775,496.400 674.825,496.400 674.825,512.000"/><polygon fill="#8b6950" points="674.825,512.000 676.775,512.000 676.775,496.400"/><polygon fill="#8b6950" points="676.775,512.000 674.825,512.000 674.825,527.600"/><polygon fill="#8b6950" points="674.825,527.600 676.775,527.600 676.775,512.000"/><polygon fill="#8b6950" points="676.775,527.600 674.825,527.600 674.825,543.200"/><polygon fill="#8b6950" points="674.825,543.200 676.775,543.200 676.775,527.600"/><polygon fill="#8b6950" points="676.775,543.200 674.825,543.200 674.825,558.800"/><polygon fill="#8b6950" points="674.825,558.800 676.775,558.800 676.775,543.200"/><polygon fill="#8b6950" points="683.600,567.575 683.600,565.625 676.775,558.800"/><polygon fill="#8b6950" points="676.775,558.800 674.825,558.800 683.600,567.575"/><polygon fill="#8b6950" points="683.600,565.625 683.600,567.575 690.425,574.400"/><polygon fill="#8b6950" points="690.425,574.400 692.375,574.400 683.600,565.625"/><polygon fill="#8b6950" points="699.200,583.175 699.200,581.225 692.375,574.400"/><polygon fill="#8b6950" points="692.375,574.400 690.425,574.400 699.200,583.175"/><polygon fill="#8b6950" points="699.200,581.225 699.200,583.175 706.025,590.000"/><polygon fill="#8b6950" points="706.025,590.000 707.975,590.000 699.200,581.225"/><polygon fill="#8b6950" points="714.800,598.775 714.800,596.825 707.975,590.000"/><polygon fill="#8b6950" points="707.975,590.000 706.025,590.000 714.800,598.775"/><polygon fill="#8b6950" points="714.800,596.825 714.800,598.775 721.625,605.600"/><polygon fill="#8b6950" points="721.625,605.600 723.575,605.600 714.800,596.825"/><polygon fill="#8b6950" points="730.400,614.375 730.400,612.425 723.575,605.600"/><polygon fill="#8b6950" points="723.575,605.600 721.625,605.600 730.400,614.375"/><polygon fill="#8b6950" points="746.000,614.375 746.000,612.425 730.400,612.425"/><polygon fill="#8b6950" points="730.400,612.425 730.400,614.375 746.000,614.375"/><polygon fill="#8b6950" points="761.600,614.375 761.600,612.425 746.000,612.425"/><polygon fill="#8b6950" points="746.000,612.425 746.000,614.375 761.600,614.375"/><polygon fill="#8b6950" points="777.200,614.375 777.200,612.425 761.600,612.425"/><polygon fill="#8b6950" points="761.600,612.425 761.600,614.375 777.200,614.375"/><polygon fill="#8b6950" points="792.800,614.375 792.800,612.425 777.200,612.425"/><polygon fill="#8b6950" points="777.200,612.425 777.200,614.375 792.800,614.375"/><polygon fill="#8b6950" points="808.400,614.375 808.400,612.425 792.800,612.425"/><polygon fill="#8b6950" points="792.800,612.425 792.800,614.375 808.400,614.375"/><polygon fill="#8b6950" points="808.400,614.375 808.400,612.425 792.800,612.425"/><polygon fill="#8b6950" points="792.800,612.425 792.800,614.375 808.400,614.375"/></g><rect x="44" y="44" width="780" height="780" fill="none" stroke="#384e52" stroke-width="2"/><g fill="#253c41" font-family="sans-serif"><text x="879" y="102" font-size="26" font-weight="bold">N</text><polygon points="889,118 877,157 889,149 901,157" fill="#253c41"/><line x1="889" y1="147" x2="889" y2="208" stroke="#253c41" stroke-width="2"/><rect x="867" y="272" width="34" height="18" rx="2" fill="#568a99"/><text x="920" y="287" font-size="22">Water</text><rect x="867" y="332" width="34" height="18" rx="2" fill="#8b6950"/><text x="920" y="347" font-size="22">Road</text><rect x="867" y="392" width="34" height="18" rx="2" fill="#8f9b62"/><text x="920" y="407" font-size="22">High ground</text><rect x="867" y="452" width="34" height="18" rx="2" fill="#b6ad7f"/><text x="920" y="467" font-size="22">Earth faces</text><text x="867" y="606" font-size="20">Original PC terrain</text><text x="867" y="640" font-size="17">North-up projection</text><text x="867" y="674" font-size="17">Static world geometry</text><text x="867" y="708" font-size="17">No actor positions</text></g></svg>